# xmcd
#
# Track frame offsets:
#	150
#	13902
#	27860
#	40902
#	55050
#	69612
#	85315
#	109652
#	121617
#	134155
#	154377
#	168030
#	179670
#	191497
#	207945
#
# Disc length: 2942 seconds
#
# Revision: 1
# Processed by: cddbd v1.4PL0 Copyright (c) Steve Scherf et al.
# Submitted via: EasyCDDAExtractor 6.0.0.1
#
DISCID=d00b7c0f
DTITLE=Gunnar Wiklund - Till dej
DYEAR=1991
DGENRE=Pop
TTITLE0=Idag kan aldrig bli igår
TTITLE1=Regntunga skyar
TTITLE2=Ljumma vindar
TTITLE3=Jag söker ord
TTITLE4=Kan jag hjälpa att jag älskar dej ännu?
TTITLE5=En som förstår
TTITLE6=Min egen väg
TTITLE7=Mest av allt
TTITLE8=Någonstans
TTITLE9=Mellan dröm och verklighet
TTITLE10=Tusen och en natt
TTITLE11=Moon River
TTITLE12=Isadora
TTITLE13=En gång i vårt sommarland
TTITLE14=Var det en dröm?
EXTD=
EXTT0=
EXTT1=
EXTT2=
EXTT3=
EXTT4=
EXTT5=
EXTT6=
EXTT7=
EXTT8=
EXTT9=
EXTT10=
EXTT11=
EXTT12=
EXTT13=
EXTT14=
PLAYORDER=
